<svg aria-hidden="true" style="width:0;height:0;position:absolute;overflow:hidden" xmlns="http://www.w3.org/2000/svg"><defs><symbol id="icon-sun" viewBox="0 0 32 32"><path style="fill:var(--color1,#000)" d="M32 16c0 8.837-7.163 16-16 16S0 24.837 0 16 7.163 0 16 0s16 7.163 16 16z"/><path fill="#fff99a" style="fill:var(--color2,#fff99a)" d="M24.316 16.018a8.168 8.168 0 1 1-16.336 0 8.168 8.168 0 0 1 16.336 0z"/><path fill="#ffd800" style="fill:var(--color3,#ffd800)" d="M16.148 6.591c.685 0 1.352.075 1.995.213L16.072 3.68l-2.007 3.145a9.465 9.465 0 0 1 2.083-.234zM11.068 8.079l-3.784-.767.833 3.771a9.472 9.472 0 0 1 2.952-3.004zM28.364 16.116l-2.96-1.889a9.444 9.444 0 0 1-.067 3.896l3.026-2.006zM24.021 10.834l.711-3.507-3.478.768a9.479 9.479 0 0 1 2.767 2.739zM6.721 16.018c0-.733.086-1.446.245-2.131l-3.329 2.207 3.349 2.137a9.442 9.442 0 0 1-.264-2.213zM21.209 23.97l3.544.718-.76-3.442a9.486 9.486 0 0 1-2.784 2.724zM16.148 25.445a9.475 9.475 0 0 1-2.275-.278l2.09 3.153 1.941-3.041a9.504 9.504 0 0 1-1.756.166zM7.982 20.725l-.8 3.949 3.722-.822a9.461 9.461 0 0 1-2.921-3.127z"/></symbol><symbol id="icon-moon" viewBox="0 0 32 32"><path fill="#063f66" style="fill:var(--color4,#063f66)" d="M31.974 16.013C31.974 24.842 24.816 32 15.987 32S0 24.842 0 16.013 7.158.026 15.987.026s15.987 7.158 15.987 15.987z"/><path fill="#022730" style="fill:var(--color5,#022730)" d="M4.663 4.689c6.251-6.251 16.397-6.251 22.649 0s6.251 16.397 0 22.649z"/><path fill="#dcf9f6" style="fill:var(--color6,#dcf9f6)" d="M8.711 27.235c0 .764-.069 1.384-.154 1.384s-.154-.619-.154-1.384c0-.764.069-1.384.154-1.384s.154.619.154 1.384z"/><path fill="#dcf9f6" style="fill:var(--color6,#dcf9f6)" d="M9.941 27.286c0 .085-.619.154-1.383.154s-1.383-.069-1.383-.154c0-.085.619-.154 1.383-.154s1.383.069 1.383.154zM28.292 8.69c.06.06-.328.547-.867 1.089s-1.025.932-1.085.872c-.06-.06.328-.547.867-1.089s1.025-.932 1.085-.872z"/><path fill="#dcf9f6" style="fill:var(--color6,#dcf9f6)" d="M28.276 10.668c-.06.06-.546-.331-1.085-.872s-.927-1.029-.867-1.089c.06-.06.546.331 1.085.872s.927 1.029.867 1.089zM23.52 5.406c0 .34-.023.615-.051.615s-.051-.275-.051-.615c0-.34.023-.615.051-.615s.051.275.051.615z"/><path fill="#dcf9f6" style="fill:var(--color6,#dcf9f6)" d="M24.083 5.406c0 .028-.275.051-.615.051s-.615-.023-.615-.051c0-.028.275-.051.615-.051s.615.023.615.051zM10.952 6.123c.02-.02.248.173.509.432s.457.485.437.505c-.02.02-.248-.173-.509-.432s-.457-.485-.437-.505z"/><path fill="#dcf9f6" style="fill:var(--color6,#dcf9f6)" d="M11.906 6.112c.02.02-.176.246-.437.505s-.49.452-.509.432c-.02-.02.176-.246.437-.505s.49-.452.509-.432zM5.713 22.937c.02-.02.248.174.508.433s.456.486.436.506c-.02.02-.248-.174-.508-.433s-.456-.486-.436-.506z"/><path fill="#dcf9f6" style="fill:var(--color6,#dcf9f6)" d="M6.694 22.922c.02.02-.175.247-.436.506s-.488.454-.508.433c-.02-.02.175-.247.436-.506s.488-.454.508-.433zM19.649 4.576c.02.02-.06.134-.179.255s-.232.204-.252.184c-.02-.02.06-.134.179-.255s.232-.204.252-.184z"/><path fill="#dcf9f6" style="fill:var(--color6,#dcf9f6)" d="M19.655 5.039c-.02.02-.133-.062-.252-.184s-.199-.236-.179-.255c.02-.02.133.062.252.184s.199.236.179.255zM14.019 28.396c.02.02-.06.134-.179.256s-.232.204-.252.184c-.02-.02.06-.134.179-.256s.232-.204.252-.184z"/><path fill="#dcf9f6" style="fill:var(--color6,#dcf9f6)" d="M14.036 28.864c-.02.02-.133-.062-.252-.184s-.199-.236-.179-.256c.02-.02.133.062.252.184s.199.236.179.256zM26.235 16.013c0 5.66-4.588 10.248-10.248 10.248S5.739 21.673 5.739 16.013c0-5.66 4.588-10.248 10.248-10.248s10.248 4.588 10.248 10.248z"/><path fill="#95bfb9" style="fill:var(--color7,#95bfb9)" d="M20.599 16.013c0 5.637 1.025 10.248-4.612 10.248S5.739 21.649 5.739 16.013 10.351 5.765 15.987 5.765s4.612 4.612 4.612 10.248z"/><path fill="#78a8a0" style="fill:var(--color8,#78a8a0)" d="M9.48 10.581a.615.615 0 1 1-1.23 0 .615.615 0 0 1 1.23 0zM8.096 12.887a.102.102 0 1 1-.204 0 .102.102 0 1 1 .204 0zM14.04 14.219a1.896 1.896 0 1 1-3.792 0 1.896 1.896 0 0 1 3.792 0zM13.476 10.069a.512.512 0 1 1-1.023 0 .512.512 0 0 1 1.023 0zM16.653 9.813a.154.154 0 1 1-.308 0 .154.154 0 0 1 .308 0zM17.986 8.07a.154.154 0 1 1-.308 0 .154.154 0 0 1 .308 0zM13.169 8.173a.256.256 0 1 1-.512 0 .256.256 0 0 1 .512 0zM15.065 7.302a.102.102 0 1 1-.204 0 .102.102 0 1 1 .204 0zM17.729 13.195a.41.41 0 1 1-.821-.001.41.41 0 0 1 .821.001zM20.65 12.938a.256.256 0 1 1-.512 0 .256.256 0 0 1 .512 0z"/><path fill="#95bfb9" style="fill:var(--color7,#95bfb9)" d="M21.47 10.018a.41.41 0 1 1-.821-.001.41.41 0 0 1 .821.001z"/><path fill="#78a8a0" style="fill:var(--color8,#78a8a0)" d="M20.394 18.267a1.127 1.127 0 1 1-2.254 0 1.127 1.127 0 0 1 2.254 0zM10.351 18.934a.36.36 0 1 1-.719 0 .36.36 0 0 1 .719 0zM13.835 17.396a.154.154 0 1 1-.308 0 .154.154 0 0 1 .308 0zM16.09 21.239a.615.615 0 1 1-1.23 0 .615.615 0 0 1 1.23 0zM8.404 16.32a.41.41 0 1 1-.821-.001.41.41 0 0 1 .821.001zM17.217 16.064a.102.102 0 1 1-.204 0 .102.102 0 1 1 .204 0z"/><path fill="#95bfb9" style="fill:var(--color7,#95bfb9)" d="M22.29 16.269a.256.256 0 1 1-.512 0 .256.256 0 0 1 .512 0z"/><path fill="#78a8a0" style="fill:var(--color8,#78a8a0)" d="M11.785 21.752a.615.615 0 1 1-1.23 0 .615.615 0 0 1 1.23 0zM12.605 19.548a.205.205 0 1 1-.41 0 .205.205 0 0 1 .41 0zM18.959 21.957a.205.205 0 1 1-.41 0 .205.205 0 0 1 .41 0zM15.629 23.648a.154.154 0 1 1-.308 0 .154.154 0 0 1 .308 0zM13.015 23.392a.102.102 0 1 1-.204 0 .102.102 0 1 1 .204 0z"/><path fill="#95bfb9" style="fill:var(--color7,#95bfb9)" d="M21.726 21.034a.41.41 0 1 1-.821-.001.41.41 0 0 1 .821.001z"/><path fill="#78a8a0" style="fill:var(--color8,#78a8a0)" d="M18.447 24.058a.256.256 0 1 1-.512 0 .256.256 0 0 1 .512 0zM15.936 18.524a.205.205 0 1 1-.41 0 .205.205 0 0 1 .41 0z"/><path fill="#95bfb9" style="fill:var(--color7,#95bfb9)" d="M23.058 19.241a.41.41 0 1 1-.821-.001.41.41 0 0 1 .821.001z"/><path fill="#78a8a0" style="fill:var(--color8,#78a8a0)" d="M8.967 20.727a.36.36 0 1 1-.719 0 .36.36 0 0 1 .719 0zM20.291 15.449a.46.46 0 1 1-.921.001.46.46 0 0 1 .921-.001z"/></symbol></defs></svg>