<svg aria-hidden="true" style="position: absolute; width: 0; height: 0; overflow: hidden;" version="1.1" xmlns="http://www.w3.org/2000/svg" xmlns:xlink="http://www.w3.org/1999/xlink">
<defs>
<symbol id="icon-sun" viewBox="0 0 32 32">
<path fill="#000" style="fill: var(--color1, #000)" d="M32 16c0 8.837-7.163 16-16 16s-16-7.163-16-16c0-8.837 7.163-16 16-16s16 7.163 16 16z"></path>
<path fill="#fff99a" style="fill: var(--color2, #fff99a)" d="M24.316 16.018c0 4.511-3.657 8.168-8.168 8.168s-8.168-3.657-8.168-8.168c0-4.511 3.657-8.168 8.168-8.168s8.168 3.657 8.168 8.168z"></path>
<path fill="#ffd800" style="fill: var(--color3, #ffd800)" d="M16.148 6.591c0.685 0 1.352 0.075 1.995 0.213l-2.071-3.124-2.007 3.145c0.67-0.151 1.367-0.234 2.083-0.234z"></path>
<path fill="#ffd800" style="fill: var(--color3, #ffd800)" d="M11.068 8.079l-3.784-0.767 0.833 3.771c0.745-1.21 1.756-2.237 2.952-3.004z"></path>
<path fill="#ffd800" style="fill: var(--color3, #ffd800)" d="M28.364 16.116l-2.96-1.889c0.112 0.58 0.172 1.179 0.172 1.792 0 0.723-0.084 1.427-0.239 2.104l3.026-2.006z"></path>
<path fill="#ffd800" style="fill: var(--color3, #ffd800)" d="M24.021 10.834l0.711-3.507-3.478 0.768c1.101 0.711 2.045 1.645 2.767 2.739z"></path>
<path fill="#ffd800" style="fill: var(--color3, #ffd800)" d="M6.721 16.018c0-0.733 0.086-1.446 0.245-2.131l-3.329 2.207 3.349 2.137c-0.171-0.71-0.264-1.451-0.264-2.213z"></path>
<path fill="#ffd800" style="fill: var(--color3, #ffd800)" d="M21.209 23.97l3.544 0.718-0.76-3.442c-0.728 1.090-1.678 2.018-2.784 2.724z"></path>
<path fill="#ffd800" style="fill: var(--color3, #ffd800)" d="M16.148 25.445c-0.785 0-1.546-0.098-2.275-0.278l2.090 3.153 1.941-3.041c-0.57 0.107-1.156 0.166-1.756 0.166z"></path>
<path fill="#ffd800" style="fill: var(--color3, #ffd800)" d="M7.982 20.725l-0.8 3.949 3.722-0.822c-1.197-0.803-2.198-1.874-2.921-3.127z"></path>
</symbol>
<symbol id="icon-moon" viewBox="0 0 32 32">
<path fill="#063f66" style="fill: var(--color4, #063f66)" d="M31.974 16.013c0 8.829-7.158 15.987-15.987 15.987s-15.987-7.158-15.987-15.987c0-8.829 7.158-15.987 15.987-15.987s15.987 7.158 15.987 15.987z"></path>
<path fill="#022730" style="fill: var(--color5, #022730)" d="M4.663 4.689c6.251-6.251 16.397-6.251 22.649 0s6.251 16.397 0 22.649z"></path>
<path fill="#dcf9f6" style="fill: var(--color6, #dcf9f6)" d="M8.711 27.235c0 0.764-0.069 1.384-0.154 1.384s-0.154-0.619-0.154-1.384c0-0.764 0.069-1.384 0.154-1.384s0.154 0.619 0.154 1.384z"></path>
<path fill="#dcf9f6" style="fill: var(--color6, #dcf9f6)" d="M9.941 27.286c0 0.085-0.619 0.154-1.383 0.154s-1.383-0.069-1.383-0.154c0-0.085 0.619-0.154 1.383-0.154s1.383 0.069 1.383 0.154z"></path>
<path fill="#dcf9f6" style="fill: var(--color6, #dcf9f6)" d="M28.292 8.69c0.060 0.060-0.328 0.547-0.867 1.089s-1.025 0.932-1.085 0.872c-0.060-0.060 0.328-0.547 0.867-1.089s1.025-0.932 1.085-0.872z"></path>
<path fill="#dcf9f6" style="fill: var(--color6, #dcf9f6)" d="M28.276 10.668c-0.060 0.060-0.546-0.331-1.085-0.872s-0.927-1.029-0.867-1.089c0.060-0.060 0.546 0.331 1.085 0.872s0.927 1.029 0.867 1.089z"></path>
<path fill="#dcf9f6" style="fill: var(--color6, #dcf9f6)" d="M23.52 5.406c0 0.34-0.023 0.615-0.051 0.615s-0.051-0.275-0.051-0.615c0-0.34 0.023-0.615 0.051-0.615s0.051 0.275 0.051 0.615z"></path>
<path fill="#dcf9f6" style="fill: var(--color6, #dcf9f6)" d="M24.083 5.406c0 0.028-0.275 0.051-0.615 0.051s-0.615-0.023-0.615-0.051c0-0.028 0.275-0.051 0.615-0.051s0.615 0.023 0.615 0.051z"></path>
<path fill="#dcf9f6" style="fill: var(--color6, #dcf9f6)" d="M10.952 6.123c0.020-0.020 0.248 0.173 0.509 0.432s0.457 0.485 0.437 0.505c-0.020 0.020-0.248-0.173-0.509-0.432s-0.457-0.485-0.437-0.505z"></path>
<path fill="#dcf9f6" style="fill: var(--color6, #dcf9f6)" d="M11.906 6.112c0.020 0.020-0.176 0.246-0.437 0.505s-0.49 0.452-0.509 0.432c-0.020-0.020 0.176-0.246 0.437-0.505s0.49-0.452 0.509-0.432z"></path>
<path fill="#dcf9f6" style="fill: var(--color6, #dcf9f6)" d="M5.713 22.937c0.020-0.020 0.248 0.174 0.508 0.433s0.456 0.486 0.436 0.506c-0.020 0.020-0.248-0.174-0.508-0.433s-0.456-0.486-0.436-0.506z"></path>
<path fill="#dcf9f6" style="fill: var(--color6, #dcf9f6)" d="M6.694 22.922c0.020 0.020-0.175 0.247-0.436 0.506s-0.488 0.454-0.508 0.433c-0.020-0.020 0.175-0.247 0.436-0.506s0.488-0.454 0.508-0.433z"></path>
<path fill="#dcf9f6" style="fill: var(--color6, #dcf9f6)" d="M19.649 4.576c0.020 0.020-0.060 0.134-0.179 0.255s-0.232 0.204-0.252 0.184c-0.020-0.020 0.060-0.134 0.179-0.255s0.232-0.204 0.252-0.184z"></path>
<path fill="#dcf9f6" style="fill: var(--color6, #dcf9f6)" d="M19.655 5.039c-0.020 0.020-0.133-0.062-0.252-0.184s-0.199-0.236-0.179-0.255c0.020-0.020 0.133 0.062 0.252 0.184s0.199 0.236 0.179 0.255z"></path>
<path fill="#dcf9f6" style="fill: var(--color6, #dcf9f6)" d="M14.019 28.396c0.020 0.020-0.060 0.134-0.179 0.256s-0.232 0.204-0.252 0.184c-0.020-0.020 0.060-0.134 0.179-0.256s0.232-0.204 0.252-0.184z"></path>
<path fill="#dcf9f6" style="fill: var(--color6, #dcf9f6)" d="M14.036 28.864c-0.020 0.020-0.133-0.062-0.252-0.184s-0.199-0.236-0.179-0.256c0.020-0.020 0.133 0.062 0.252 0.184s0.199 0.236 0.179 0.256z"></path>
<path fill="#dcf9f6" style="fill: var(--color6, #dcf9f6)" d="M26.235 16.013c0 5.66-4.588 10.248-10.248 10.248s-10.248-4.588-10.248-10.248c0-5.66 4.588-10.248 10.248-10.248s10.248 4.588 10.248 10.248z"></path>
<path fill="#95bfb9" style="fill: var(--color7, #95bfb9)" d="M20.599 16.013c0 5.637 1.025 10.248-4.612 10.248s-10.248-4.612-10.248-10.248 4.612-10.248 10.248-10.248 4.612 4.612 4.612 10.248z"></path>
<path fill="#78a8a0" style="fill: var(--color8, #78a8a0)" d="M9.48 10.581c0 0.34-0.275 0.615-0.615 0.615s-0.615-0.275-0.615-0.615c0-0.34 0.275-0.615 0.615-0.615s0.615 0.275 0.615 0.615z"></path>
<path fill="#78a8a0" style="fill: var(--color8, #78a8a0)" d="M8.096 12.887c0 0.057-0.046 0.102-0.102 0.102s-0.102-0.046-0.102-0.102c0-0.057 0.046-0.102 0.102-0.102s0.102 0.046 0.102 0.102z"></path>
<path fill="#78a8a0" style="fill: var(--color8, #78a8a0)" d="M14.040 14.219c0 1.047-0.849 1.896-1.896 1.896s-1.896-0.849-1.896-1.896c0-1.047 0.849-1.896 1.896-1.896s1.896 0.849 1.896 1.896z"></path>
<path fill="#78a8a0" style="fill: var(--color8, #78a8a0)" d="M13.476 10.069c0 0.283-0.229 0.512-0.512 0.512s-0.512-0.229-0.512-0.512c0-0.283 0.229-0.512 0.512-0.512s0.512 0.229 0.512 0.512z"></path>
<path fill="#78a8a0" style="fill: var(--color8, #78a8a0)" d="M16.653 9.813c0 0.085-0.069 0.154-0.154 0.154s-0.154-0.069-0.154-0.154c0-0.085 0.069-0.154 0.154-0.154s0.154 0.069 0.154 0.154z"></path>
<path fill="#78a8a0" style="fill: var(--color8, #78a8a0)" d="M17.986 8.070c0 0.085-0.069 0.154-0.154 0.154s-0.154-0.069-0.154-0.154c0-0.085 0.069-0.154 0.154-0.154s0.154 0.069 0.154 0.154z"></path>
<path fill="#78a8a0" style="fill: var(--color8, #78a8a0)" d="M13.169 8.173c0 0.142-0.115 0.256-0.256 0.256s-0.256-0.115-0.256-0.256c0-0.142 0.115-0.256 0.256-0.256s0.256 0.115 0.256 0.256z"></path>
<path fill="#78a8a0" style="fill: var(--color8, #78a8a0)" d="M15.065 7.302c0 0.057-0.046 0.102-0.102 0.102s-0.102-0.046-0.102-0.102c0-0.057 0.046-0.102 0.102-0.102s0.102 0.046 0.102 0.102z"></path>
<path fill="#78a8a0" style="fill: var(--color8, #78a8a0)" d="M17.729 13.195c0 0.226-0.184 0.41-0.41 0.41s-0.41-0.184-0.41-0.41c0-0.226 0.184-0.41 0.41-0.41s0.41 0.184 0.41 0.41z"></path>
<path fill="#78a8a0" style="fill: var(--color8, #78a8a0)" d="M20.65 12.938c0 0.142-0.115 0.256-0.256 0.256s-0.256-0.115-0.256-0.256c0-0.142 0.115-0.256 0.256-0.256s0.256 0.115 0.256 0.256z"></path>
<path fill="#95bfb9" style="fill: var(--color7, #95bfb9)" d="M21.47 10.018c0 0.226-0.184 0.41-0.41 0.41s-0.41-0.184-0.41-0.41c0-0.226 0.184-0.41 0.41-0.41s0.41 0.184 0.41 0.41z"></path>
<path fill="#78a8a0" style="fill: var(--color8, #78a8a0)" d="M20.394 18.267c0 0.623-0.505 1.127-1.127 1.127s-1.127-0.505-1.127-1.127c0-0.623 0.505-1.127 1.127-1.127s1.127 0.505 1.127 1.127z"></path>
<path fill="#78a8a0" style="fill: var(--color8, #78a8a0)" d="M10.351 18.934c0 0.198-0.161 0.359-0.359 0.359s-0.359-0.161-0.359-0.359c0-0.198 0.161-0.359 0.359-0.359s0.359 0.161 0.359 0.359z"></path>
<path fill="#78a8a0" style="fill: var(--color8, #78a8a0)" d="M13.835 17.396c0 0.085-0.069 0.154-0.154 0.154s-0.154-0.069-0.154-0.154c0-0.085 0.069-0.154 0.154-0.154s0.154 0.069 0.154 0.154z"></path>
<path fill="#78a8a0" style="fill: var(--color8, #78a8a0)" d="M16.090 21.239c0 0.34-0.275 0.615-0.615 0.615s-0.615-0.275-0.615-0.615c0-0.34 0.275-0.615 0.615-0.615s0.615 0.275 0.615 0.615z"></path>
<path fill="#78a8a0" style="fill: var(--color8, #78a8a0)" d="M8.404 16.32c0 0.226-0.184 0.41-0.41 0.41s-0.41-0.184-0.41-0.41c0-0.226 0.184-0.41 0.41-0.41s0.41 0.184 0.41 0.41z"></path>
<path fill="#78a8a0" style="fill: var(--color8, #78a8a0)" d="M17.217 16.064c0 0.057-0.046 0.102-0.102 0.102s-0.102-0.046-0.102-0.102c0-0.057 0.046-0.102 0.102-0.102s0.102 0.046 0.102 0.102z"></path>
<path fill="#95bfb9" style="fill: var(--color7, #95bfb9)" d="M22.29 16.269c0 0.142-0.115 0.256-0.256 0.256s-0.256-0.115-0.256-0.256c0-0.142 0.115-0.256 0.256-0.256s0.256 0.115 0.256 0.256z"></path>
<path fill="#78a8a0" style="fill: var(--color8, #78a8a0)" d="M11.785 21.752c0 0.34-0.275 0.615-0.615 0.615s-0.615-0.275-0.615-0.615c0-0.34 0.275-0.615 0.615-0.615s0.615 0.275 0.615 0.615z"></path>
<path fill="#78a8a0" style="fill: var(--color8, #78a8a0)" d="M12.605 19.548c0 0.113-0.092 0.205-0.205 0.205s-0.205-0.092-0.205-0.205c0-0.113 0.092-0.205 0.205-0.205s0.205 0.092 0.205 0.205z"></path>
<path fill="#78a8a0" style="fill: var(--color8, #78a8a0)" d="M18.959 21.957c0 0.113-0.092 0.205-0.205 0.205s-0.205-0.092-0.205-0.205c0-0.113 0.092-0.205 0.205-0.205s0.205 0.092 0.205 0.205z"></path>
<path fill="#78a8a0" style="fill: var(--color8, #78a8a0)" d="M15.629 23.648c0 0.085-0.069 0.154-0.154 0.154s-0.154-0.069-0.154-0.154c0-0.085 0.069-0.154 0.154-0.154s0.154 0.069 0.154 0.154z"></path>
<path fill="#78a8a0" style="fill: var(--color8, #78a8a0)" d="M13.015 23.392c0 0.057-0.046 0.102-0.102 0.102s-0.102-0.046-0.102-0.102c0-0.057 0.046-0.102 0.102-0.102s0.102 0.046 0.102 0.102z"></path>
<path fill="#95bfb9" style="fill: var(--color7, #95bfb9)" d="M21.726 21.034c0 0.226-0.184 0.41-0.41 0.41s-0.41-0.184-0.41-0.41c0-0.226 0.184-0.41 0.41-0.41s0.41 0.184 0.41 0.41z"></path>
<path fill="#78a8a0" style="fill: var(--color8, #78a8a0)" d="M18.447 24.058c0 0.142-0.115 0.256-0.256 0.256s-0.256-0.115-0.256-0.256c0-0.142 0.115-0.256 0.256-0.256s0.256 0.115 0.256 0.256z"></path>
<path fill="#78a8a0" style="fill: var(--color8, #78a8a0)" d="M15.936 18.524c0 0.113-0.092 0.205-0.205 0.205s-0.205-0.092-0.205-0.205c0-0.113 0.092-0.205 0.205-0.205s0.205 0.092 0.205 0.205z"></path>
<path fill="#95bfb9" style="fill: var(--color7, #95bfb9)" d="M23.058 19.241c0 0.226-0.184 0.41-0.41 0.41s-0.41-0.184-0.41-0.41c0-0.226 0.184-0.41 0.41-0.41s0.41 0.184 0.41 0.41z"></path>
<path fill="#78a8a0" style="fill: var(--color8, #78a8a0)" d="M8.967 20.727c0 0.198-0.161 0.359-0.359 0.359s-0.359-0.161-0.359-0.359c0-0.198 0.161-0.359 0.359-0.359s0.359 0.161 0.359 0.359z"></path>
<path fill="#78a8a0" style="fill: var(--color8, #78a8a0)" d="M20.291 15.449c0 0.255-0.206 0.461-0.461 0.461s-0.461-0.206-0.461-0.461c0-0.255 0.206-0.461 0.461-0.461s0.461 0.206 0.461 0.461z"></path>
</symbol>
</defs>
</svg>
